Coordinates
version=1
nRows=4
nColumns=124
inDegrees=yes

Units are S.I. units (second, meters, Newtons, ...)
If the header above contains a line with 'inDegrees', this indicates whether rotational values are in degrees (yes) or radians (no).

endheader 
time	pelvis_tilt	pelvis_list	pelvis_rotation	pelvis_tx	pelvis_ty	pelvis_tz	hip_flexion_l	hip_adduction_l	hip_rotation_l	hip_flexion_r	hip_adduction_r	hip_rotation_r	knee_angle_l	knee_angle_r	ankle_angle_l	ankle_angle_r	subtalar_angle_l	subtalar_angle_r	mtp_angle_l	mtp_angle_r	lumbar_extension	lumbar_bending	lumbar_rotation	arm_flex_l	arm_add_l	arm_rot_l	arm_flex_r	arm_add_r	arm_rot_r	elbow_flex_l	elbow_flex_r	glut_med1_l/activation	glut_med2_l/activation	glut_med3_l/activation	glut_min1_l/activation	glut_min2_l/activation	glut_min3_l/activation	semimem_l/activation	semiten_l/activation	bifemlh_l/activation	bifemsh_l/activation	sar_l/activation	add_long_l/activation	add_brev_l/activation	add_mag1_l/activation	add_mag2_l/activation	add_mag3_l/activation	tfl_l/activation	pect_l/activation	grac_l/activation	glut_max1_l/activation	glut_max2_l/activation	glut_max3_l/activation	iliacus_l/activation	psoas_l/activation	quad_fem_l/activation	gem_l/activation	peri_l/activation	rect_fem_l/activation	vas_med_l/activation	vas_int_l/activation	vas_lat_l/activation	med_gas_l/activation	lat_gas_l/activation	soleus_l/activation	tib_post_l/activation	flex_dig_l/activation	flex_hal_l/activation	tib_ant_l/activation	per_brev_l/activation	per_long_l/activation	per_tert_l/activation	ext_dig_l/activation	ext_hal_l/activation	ercspn_l/activation	intobl_l/activation	extobl_l/activation	glut_med1_r/activation	glut_med2_r/activation	glut_med3_r/activation	glut_min1_r/activation	glut_min2_r/activation	glut_min3_r/activation	semimem_r/activation	semiten_r/activation	bifemlh_r/activation	bifemsh_r/activation	sar_r/activation	add_long_r/activation	add_brev_r/activation	add_mag1_r/activation	add_mag2_r/activation	add_mag3_r/activation	tfl_r/activation	pect_r/activation	grac_r/activation	glut_max1_r/activation	glut_max2_r/activation	glut_max3_r/activation	iliacus_r/activation	psoas_r/activation	quad_fem_r/activation	gem_r/activation	peri_r/activation	rect_fem_r/activation	vas_med_r/activation	vas_int_r/activation	vas_lat_r/activation	med_gas_r/activation	lat_gas_r/activation	soleus_r/activation	tib_post_r/activation	flex_dig_r/activation	flex_hal_r/activation	tib_ant_r/activation	per_brev_r/activation	per_long_r/activation	per_tert_r/activation	ext_dig_r/activation	ext_hal_r/activation	ercspn_r/activation	intobl_r/activation	extobl_r/activation	
          0.50637757	         -9.00435623	         -1.16741971	        -16.38620870	          0.65525120	          0.89519504	          0.01237575	         37.68052778	         -8.99253620	        -10.72614317	        -10.75278896	          1.04302604	         -1.40344681	        -19.45987153	         -0.23058588	          9.84382103	          8.42644496	         -4.52983049	         -2.79015324	          0.28203349	         18.19432853	          2.03133278	          5.31962930	          3.65248858	         -2.77671306	        -13.62616313	         15.81217785	         19.47454941	        -13.50034835	         19.29809266	         13.59642256	         57.53075007	          0.13330805	          0.48092550	          0.75660031	          0.41675640	          0.42781107	          0.63586976	          0.21139370	          0.10068892	          0.08517057	          0.10737209	          0.12858545	          0.05001766	          0.05002527	          0.05003236	          0.05010752	          0.05066393	          0.05016636	          0.05007401	          0.05007685	          0.06714523	          0.06146217	          0.06491338	          0.05154565	          0.05001612	          0.22853620	          0.43122307	          0.77596550	          0.05000609	          0.05014844	          0.05991886	          0.09345203	          0.05007046	          0.05203454	          0.05308787	          0.05000568	          0.05005674	          0.05005069	          0.53802061	          0.32686458	          0.14878908	          0.31605662	          0.71454775	          0.05002352	          0.17065575	          0.08516678	          0.08237702	          0.05001060	          0.53745683	          0.31418089	          0.19034439	          0.71712288	          0.70955750	          0.18794656	          0.17068162	          0.10813831	          0.39408190	          0.29057107	          0.08511410	          0.05001106	          0.05001950	          0.05003515	          0.05000721	          0.23170256	          0.08523952	          0.23659541	          0.05023404	          0.05005962	          0.05004339	          0.63904810	          0.69510226	          0.38461004	          0.36935805	          0.54024535	          0.05000110	          0.05000534	          0.05000458	          0.05000467	          0.05042412	          0.05042407	          0.05042477	          0.05042376	          0.05042438	          0.05042473	          0.05042542	          0.05042523	          0.05042502	          0.05042511	          0.05042525	          0.05042527	          0.05489909	          0.05000082	          0.05000217	
          0.54857570	         -9.32164014	         -1.87317751	        -16.62692792	          0.71867814	          0.89387321	          0.01047201	         35.01297533	         -8.75665848	         -9.84172000	        -11.63322290	          1.22045859	         -6.76149989	        -21.45583418	         -5.11291909	          7.66910886	          4.98181638	         -5.26240239	         -4.56279495	          0.18395777	         22.62874260	          2.25719251	          5.14831771	          4.79734612	         -5.96280260	        -13.64632954	         14.88774441	         20.41233136	        -13.54550754	         19.26818065	         11.66420341	         55.38400851	          0.13013067	          0.40948650	          0.55907381	          0.24468299	          0.25119849	          0.61536563	          0.12410896	          0.05912560	          0.05001346	          0.06304682	          0.07550243	          0.05000481	          0.05000978	          0.05003186	          0.05003707	          0.05010365	          0.13859632	          0.05003281	          0.05003280	          0.33008331	          0.24275769	          0.11184062	          0.05000349	          0.05000493	          0.14916536	          0.25317459	          0.45560729	          0.08510310	          0.25928022	          0.28365335	          0.26673947	          0.05000262	          0.05000600	          0.05000115	          0.16991690	          0.05002054	          0.05002000	          0.82862378	          0.25364853	          0.11312026	          0.68389001	          0.82132039	          0.42403199	          0.16108324	          0.05000175	          0.05000248	          0.21264231	          0.31554706	          0.18446468	          0.11189022	          0.42102543	          0.41658267	          0.13107783	          0.10886205	          0.11519057	          0.23136500	          0.17059723	          0.05000249	          0.05000961	          0.05003784	          0.05015155	          0.27805152	          0.13603625	          0.05005344	          0.13891072	          0.11155707	          0.14040784	          0.14506630	          0.37518279	          0.40809204	          0.22580714	          0.21686428	          0.31720404	          0.05000572	          0.11201715	          0.13544558	          0.09250853	          0.05042437	          0.05042432	          0.05042495	          0.05042386	          0.05042448	          0.05042479	          0.05042538	          0.05042501	          0.05042482	          0.05042498	          0.05042516	          0.05042521	          0.18898172	          0.15723332	          0.05000191	
          0.59077383	         -9.54767915	         -2.56298579	        -16.56959120	          0.78060587	          0.90029454	          0.00775939	         32.24580974	         -8.02571809	         -8.10138411	        -12.19995341	          1.42622264	        -11.77548404	        -23.59951196	         -9.61594806	          9.18582263	          0.95256773	         -6.33526983	         -9.10607146	          0.15074167	         19.99830678	          2.48705106	          5.07829845	          5.55501560	         -8.62382961	        -13.59186035	         14.98610462	         19.99728585	        -13.46650952	         18.93060771	         10.83496974	         50.89654357	          0.31680369	          0.39599597	          0.55867234	          0.40968019	          0.43316160	          0.48180990	          0.09789557	          0.08970703	          0.08327154	          0.05009395	          0.05002326	          0.05002061	          0.05005875	          0.05019512	          0.08826305	          0.10568865	          0.08137367	          0.05007861	          0.05391276	          0.22747872	          0.19106928	          0.11100819	          0.05000757	          0.05000747	          0.08758029	          0.14864315	          0.41547113	          0.05000364	          0.24480511	          0.35289220	          0.32370980	          0.05000456	          0.05001013	          0.05000216	          0.27896108	          0.16421414	          0.05271255	          0.64371568	          0.14891863	          0.06641554	          0.40151753	          0.51001382	          0.34150202	          0.15013682	          0.05000119	          0.05000240	          0.20738601	          0.18525786	          0.10829988	          0.14507254	          0.24718576	          0.24457668	          0.12641922	          0.12319072	          0.09202872	          0.13583894	          0.10016491	          0.28019524	          0.05039236	          0.05013702	          0.05128515	          0.16513313	          0.07988781	          0.05005091	          0.08157691	          0.06554186	          0.08247115	          0.08521579	          0.22027369	          0.23959884	          0.13257364	          0.12732920	          0.18624602	          0.16577733	          0.06577031	          0.07952412	          0.05431524	          0.05042487	          0.05042480	          0.05042502	          0.05042368	          0.05042436	          0.05042466	          0.05042534	          0.05042530	          0.05042508	          0.05042505	          0.05042521	          0.05042513	          0.19523688	          0.16541733	          0.05000244	
          0.63297196	         -9.72197060	         -3.51260958	        -16.13234502	          0.84035082	          0.91129793	          0.00487749	         28.14951846	         -7.21759707	         -5.92841225	        -12.42587504	          2.43558384	        -16.45293085	        -23.24974818	        -11.70110512	         11.26619353	         -0.14514452	         -6.20088592	        -14.97113272	          0.35086706	         12.18828941	          2.64448236	          5.44827160	          5.86571798	        -10.53715996	        -13.52031050	         15.76288986	         18.08045507	        -13.46648213	         17.88271434	         11.10696277	         45.98658201	          0.39799006	          0.40564737	          0.48290656	          0.45219155	          0.48840054	          0.46772211	          0.13586631	          0.17994069	          0.13107487	          0.05001839	          0.05001139	          0.05001169	          0.05020772	          0.29556673	          0.27408093	          0.17352329	          0.05000948	          0.05004383	          0.14754663	          0.31110519	          0.21113389	          0.16964960	          0.05000294	          0.05000312	          0.05143064	          0.08727310	          0.24393348	          0.05000296	          0.24145389	          0.30639280	          0.26047330	          0.05000420	          0.05001046	          0.05000301	          0.34343808	          0.20710930	          0.15688513	          0.42441530	          0.08743232	          0.05000532	          0.23573992	          0.29943689	          0.20906769	          0.09758318	          0.05000150	          0.05000261	          0.12175620	          0.10876740	          0.08519600	          0.08517591	          0.14512397	          0.14360011	          0.08285122	          0.07428465	          0.08513912	          0.08516753	          0.08506340	          0.23342287	          0.23990541	          0.26734929	          0.10682577	          0.09696939	          0.05003558	          0.26650556	          0.19453746	          0.05019586	          0.05010876	          0.05016694	          0.32589958	          0.35103642	          0.07785326	          0.07481615	          0.10937266	          0.30289549	          0.05001160	          0.05001020	          0.05000869	          0.05042475	          0.05042468	          0.05042504	          0.05042364	          0.05042439	          0.05042476	          0.05042541	          0.05042536	          0.05042516	          0.05042505	          0.05042520	          0.05042516	          0.15575261	          0.13741685	          0.05000476	
